<svg xmlns="http://www.w3.org/2000/svg" viewBox="0 0 500 145.96"><defs><style>.a,.b,.d{fill:#009e9e;}.a{opacity:0.4;}.b{opacity:0.6;}.c{opacity:0.8;}.e{font-size:74.65px;font-family:Gotham-Bold, Gotham;font-weight:700;letter-spacing:-0.01em;}.f{font-size:33.29px;font-family:Gotham-Book, Gotham;letter-spacing:-0.01em;}.g{letter-spacing:-0.02em;}.h{letter-spacing:-0.03em;}.i{letter-spacing:-0.02em;}.j{letter-spacing:-0.02em;}.k{letter-spacing:-0.01em;}</style></defs><polygon class="a" points="9.7 90.29 20.96 131.63 62.44 142.56 62.65 142.35 51.18 101.29 9.7 90.29"/><polygon class="b" points="71.69 133.23 92.65 112.1 81.37 70.72 39.89 59.79 18.75 81.11 60.21 92.1 71.69 133.23"/><g class="c"><polygon class="d" points="99.77 105.43 120.73 84.3 109.45 42.91 67.97 31.98 46.83 53.3 88.29 64.3 99.77 105.43"/></g><polygon class="d" points="128.35 76.85 149.31 55.72 138.03 14.33 96.55 3.4 75.41 24.72 116.86 35.72 128.35 76.85"/><text class="e" transform="translate(90.48 103.79)">movement</text><text class="f" transform="translate(94.47 136.76)">design <tspan class="g" x="117.64" y="0">s</tspan><tspan class="h" x="133.42" y="0">y</tspan><tspan class="i" x="152.13" y="0">s</tspan><tspan class="j" x="168.08" y="0">t</tspan><tspan class="k" x="180.72" y="0">em</tspan></text></svg>