<svg xmlns="http://www.w3.org/2000/svg" viewBox="0 0 405 203.48"><defs><style>.a,.b,.c{fill:#009e9e;}.a{opacity:0.3;}.b{opacity:0.6;}.d{font-size:74.65px;font-family:Gotham-Bold, Gotham;font-weight:700;letter-spacing:-0.01em;}.e{font-size:40px;font-family:Gotham-Medium, Gotham;font-weight:500;letter-spacing:-0.01em;}.f{letter-spacing:-0.02em;}.g{letter-spacing:-0.03em;}.h{letter-spacing:-0.02em;}.i{letter-spacing:-0.02em;}</style></defs><polygon class="a" points="25.26 50.41 22.45 93.16 58.11 117 58.37 116.87 60.9 74.31 25.26 50.41"/><polygon class="b" points="69.89 111.19 96.58 98.03 99.4 55.23 63.73 31.39 36.8 44.67 72.42 68.56 69.89 111.19"/><polygon class="c" points="105.49 94.04 132.19 80.89 135 38.08 99.34 14.25 72.41 27.52 108.02 51.41 105.49 94.04"/><polygon class="c" points="159.09 88.8 185.78 75.64 188.59 32.84 152.93 9 126 22.27 161.62 46.17 159.09 88.8"/><text class="d" transform="translate(2.9 162)">movement</text><text class="e" transform="translate(6.88 194.28)">design <tspan class="f" x="143.48" y="0">s</tspan><tspan class="g" x="162.52" y="0">y</tspan><tspan class="h" x="185.2" y="0">s</tspan><tspan class="i" x="204.44" y="0">t</tspan><tspan x="219.88" y="0">em</tspan></text></svg>