<svg xmlns="http://www.w3.org/2000/svg" viewBox="0 0 407.5 194.48"><defs><style>.a,.b,.d{fill:#009e9e;}.a{opacity:0.4;}.b{opacity:0.6;}.c{opacity:0.8;}.e{font-size:97.04px;font-family:Gotham-Bold, Gotham;font-weight:700;letter-spacing:-0.01em;}.f{font-size:34.3px;font-family:Gotham-Medium, Gotham;font-weight:500;letter-spacing:-0.01em;}.g{letter-spacing:-0.02em;}.h{letter-spacing:-0.03em;}.i{letter-spacing:-0.02em;}.j{letter-spacing:-0.02em;}</style></defs><polygon class="a" points="9.87 117.85 23.26 167.01 72.58 180 72.83 179.76 59.19 130.93 9.87 117.85"/><polygon class="b" points="83.58 168.91 108.5 143.78 95.09 94.57 45.77 81.58 20.63 106.93 69.92 120 83.58 168.91"/><g class="c"><polygon class="d" points="116.97 135.85 141.89 110.72 128.48 61.51 79.16 48.52 54.02 73.86 103.31 86.94 116.97 135.85"/></g><polygon class="d" points="150.95 101.87 175.87 76.74 162.46 27.53 113.14 14.53 88 39.88 137.29 52.96 150.95 101.87"/><text class="e" transform="translate(11.5 143.27)">&gt;move&gt;</text><text class="f" transform="translate(88.9 179.27)">design <tspan class="g" x="123.03" y="0">s</tspan><tspan class="h" x="139.36" y="0">y</tspan><tspan class="i" x="158.8" y="0">s</tspan><tspan class="j" x="175.3" y="0">t</tspan><tspan x="188.54" y="0">em</tspan></text></svg>