<svg xmlns="http://www.w3.org/2000/svg" viewBox="0 0 241.01 63.77"><defs><style>.a{fill:#fff;}</style></defs><path class="a" d="M77.59,16.66H88v5.19H77.59v8.49h-6v-24h18v5.26h-12Z"/><path class="a" d="M103,18.36c-2.81.1-4.59.84-5.94,2.19v9.79H91.33V13.2h5.76V15A8.71,8.71,0,0,1,103,12.91Z"/><path class="a" d="M123.67,30.34h-5.76v-1a8.72,8.72,0,0,1-13.31-7.63,8.73,8.73,0,0,1,13.31-7.64V13.2h5.76Zm-5.76-5.94V19.1a4.49,4.49,0,0,0-3.6-1.63,4.09,4.09,0,0,0-4,4.28,4.06,4.06,0,0,0,4,4.24A4.45,4.45,0,0,0,117.91,24.4Z"/><path class="a" d="M145.48,20.55v9.79h-5.8V21.47c0-2.44-1.24-3.61-3.13-3.61a4.45,4.45,0,0,0-3.2,1.73V30.34h-5.76V13.2h5.76v1.16a7.45,7.45,0,0,1,4.77-1.69C142.5,12.67,145.48,15.67,145.48,20.55Z"/><path class="a" d="M161,23.3h5.44c-.39,4.42-4.05,7.42-8.82,7.42-5.45,0-9.43-3.74-9.43-9s4-8.94,9.43-8.94c4.77,0,8.43,3,8.82,7.42H161a3.21,3.21,0,0,0-3.38-2.58,3.82,3.82,0,0,0-4,4.1,3.85,3.85,0,0,0,4,4.13A3.21,3.21,0,0,0,161,23.3Z"/><path class="a" d="M169.11,7.29a3.38,3.38,0,1,1,3.38,3.22A3.26,3.26,0,0,1,169.11,7.29Zm6.3,23.05h-5.77V13.2h5.77Z"/><path class="a" d="M183.38,24.47c.25,1.48,1.49,2.15,3.31,2.15,1.53,0,2.45-.45,2.45-1.2,0-.56-.53-1-1.67-1.2l-3.49-.6c-3-.49-5-2.15-5-5.16,0-3.6,3.1-5.72,7.69-5.72,3.66,0,7.83,1.41,8.08,5.93h-5.13c-.11-1.3-1.32-1.9-2.92-1.9s-2.17.56-2.17,1.23.43,1.1,1.78,1.34l3.24.54c3.24.6,5.37,2.15,5.37,5.19,0,4-3.59,5.8-8.07,5.8s-8.19-1.88-8.54-6.44Z"/><path class="a" d="M209.75,23.3h5.44c-.39,4.42-4.05,7.42-8.82,7.42-5.45,0-9.43-3.74-9.43-9s4-8.94,9.43-8.94c4.77,0,8.43,3,8.82,7.42h-5.44a3.21,3.21,0,0,0-3.38-2.58,3.82,3.82,0,0,0-4,4.1,3.85,3.85,0,0,0,4,4.13A3.21,3.21,0,0,0,209.75,23.3Z"/><path class="a" d="M236.29,21.75a9.36,9.36,0,0,1-18.71,0c0-5.16,3.91-8.94,9.35-8.94S236.29,16.59,236.29,21.75Zm-5.44,0a3.9,3.9,0,1,0-7.79,0,3.9,3.9,0,1,0,7.79,0Z"/><path class="a" d="M77.59,46.8H88.3v5.09H77.59v4.17H89.87v5.2H71.58v-24H89.87v5.19H77.59Z"/><path class="a" d="M111,61.26h-5.77v-.89A8.71,8.71,0,0,1,92,52.7a8.68,8.68,0,0,1,8.57-8.9,8.58,8.58,0,0,1,4.73,1.31V36.17H111Zm-5.77-5.87v-5.3a4.46,4.46,0,0,0-3.59-1.63,4.26,4.26,0,0,0,0,8.52A4.42,4.42,0,0,0,105.27,55.39Z"/><path class="a" d="M118.9,55.39c.25,1.48,1.5,2.15,3.31,2.15,1.53,0,2.46-.45,2.46-1.2,0-.56-.54-1-1.68-1.2l-3.48-.6c-3-.49-5.06-2.15-5.06-5.16,0-3.6,3.1-5.72,7.69-5.72,3.67,0,7.83,1.41,8.08,5.93h-5.13c-.1-1.3-1.31-1.9-2.91-1.9s-2.17.56-2.17,1.23.42,1.1,1.78,1.34l3.23.54c3.24.6,5.38,2.15,5.38,5.19,0,4-3.6,5.8-8.08,5.8s-8.19-1.88-8.54-6.44Z"/><path class="a" d="M151.18,52.67a9.36,9.36,0,0,1-18.72,0c0-5.16,3.91-8.94,9.36-8.94S151.18,47.51,151.18,52.67Zm-5.45,0a3.9,3.9,0,1,0-7.79,0,3.9,3.9,0,1,0,7.79,0Z"/><path class="a" d="M171.92,51.47v9.79h-5.8V52.39c0-2.44-1.24-3.61-3.13-3.61a4.43,4.43,0,0,0-3.2,1.73V61.26H154V44.12h5.77v1.16a7.45,7.45,0,0,1,4.77-1.69C168.93,43.59,171.92,46.59,171.92,51.47Z"/><path class="a" d="M174.59,58.78a3.24,3.24,0,1,1,3.24,3.11A3.14,3.14,0,0,1,174.59,58.78Z"/><polygon class="a" points="7.9 3.76 33.21 3.76 33.21 15.11 51.22 15.64 41.62 29.66 51.22 43.48 20.88 42.87 19.91 30.39 7.9 30.39 7.9 3.76"/><path class="a" d="M35.92,14.06V2.91A2.25,2.25,0,0,0,33.69.68H6.94A2.23,2.23,0,0,0,4.71,2.91V63.09H9.2l.09-31.2h8.8v7.8c0,3.66,2,5.57,4.57,5.57H51.52a2.27,2.27,0,0,0,1.83-3.51C53,41.19,45.6,29.66,45.6,29.66s7.32-11.45,7.75-12.1a2.26,2.26,0,0,0-1.82-3.5ZM9.29,27.43V5.14H29.82a1.64,1.64,0,0,1,1.63,1.74V27.43ZM31.45,33a1.11,1.11,0,0,1-1,1.12H22.54V31.89h7.92A1.1,1.1,0,0,1,31.45,33Zm16,7.8H23.66a1.13,1.13,0,0,1-1.12-1.15,1.16,1.16,0,0,1,1.12-1.08h7.91a4.31,4.31,0,0,0,4.35-4.45V18.51H47.41l-7,10.84V30Z"/></svg>